<?xml version="1.0" encoding="UTF-8"?>
<!DOCTYPE svg PUBLIC "-//W3C//DTD SVG 1.1//EN" "http://www.w3.org/Graphics/SVG/1.1/DTD/svg11.dtd">
<!-- Creator: CorelDRAW X8 -->
<svg xmlns="http://www.w3.org/2000/svg" xml:space="preserve" width="210mm" height="297mm" version="1.1" style="shape-rendering:geometricPrecision; text-rendering:geometricPrecision; image-rendering:optimizeQuality; fill-rule:evenodd; clip-rule:evenodd"
viewBox="0 0 21000 29700"
 xmlns:xlink="http://www.w3.org/1999/xlink">
 <defs>
  <style type="text/css">
   <![CDATA[
    .fil3 {fill:#010100}
    .fil0 {fill:#E76E2C}
    .fil1 {fill:#E7903E}
    .fil2 {fill:#FEFEFE}
   ]]>
  </style>
 </defs>
 <g id="Warstwa_x0020_1">
  <metadata id="CorelCorpID_0Corel-Layer"/>
  <g id="_1024402176">
   <path class="fil0" d="M7416 22705l204 -80 148 -945c15,-95 58,-244 24,-314 -313,-511 -592,-1119 -874,-1659 -245,-468 -505,-1002 -765,-1455 -38,-65 -96,-155 -119,-225 53,23 519,399 589,459 182,157 299,383 437,612 53,87 777,1163 856,1239l22 -77c69,-710 12,-1847 -314,-2481l-71 -136c-11,65 -45,108 -92,144 -249,-92 -590,-194 -760,-417 -88,-114 -71,-129 -120,-269 -92,-24 -93,-9 -144,-66 -29,-33 -66,-72 -88,-112 -132,19 -295,10 -439,29 -136,17 -266,59 -387,73 -48,-195 -281,-737 -259,-908 111,-68 278,-140 400,-199 1665,-813 2901,-1637 4199,-2877 102,-97 193,-191 288,-297l282 -302c87,-102 179,-206 267,-316 1578,-1959 2433,-4197 2524,-6880 50,190 66,735 85,973 119,1540 309,4568 63,5994 -25,144 -55,289 -98,423 -76,239 -104,219 -176,338 435,60 746,-163 924,-371 342,-398 349,-746 416,-882 101,71 223,359 261,531 98,437 12,920 -145,1328 -82,211 -215,449 -249,542 531,-29 792,-456 992,-848l89 -170c143,180 74,671 27,896 -57,275 -143,521 -240,763 -50,127 -97,232 -158,350 -127,246 1,205 283,368 57,33 110,55 169,85 484,247 275,132 221,733 -19,205 -14,397 -16,602l-52 -105c-296,-711 -1357,-1181 -2122,-1267 -234,-26 -883,-34 -1061,82 -68,74 -45,127 -173,248 5,81 35,91 26,192 -5,58 -22,113 -44,165 -41,102 -96,187 -159,275 -86,120 -297,357 -404,449 -151,130 -292,251 -482,372 -380,243 -385,158 -607,63 -20,88 -77,209 -112,299 -408,1058 -593,2536 -686,3662 -13,154 -76,1463 -83,1474 20,37 32,50 57,85 -31,89 -192,240 -244,329 171,20 253,221 443,94 175,-116 82,-516 455,-1072 55,-82 96,-118 133,-175 -79,10 -191,54 -257,34 -39,-123 98,-340 163,-447 30,-51 46,-82 80,-130 132,-186 167,-251 315,-419 32,-36 26,-33 51,-69 109,-153 487,-489 658,-600 82,-53 176,-117 255,-167 -178,-4 -548,99 -388,-129 70,-98 97,-110 168,-162 24,-18 38,-33 64,-55 264,-226 634,-453 930,-645l855 -486c-715,-142 -160,-441 130,-597 263,-141 764,-319 1096,-345 -153,-51 -427,-95 -451,-187 -31,-121 161,-192 239,-232 101,-53 217,-98 328,-138 116,-43 216,-86 332,-132 265,-105 305,-203 567,174 66,96 136,185 202,278 178,250 282,298 476,457 -299,141 -905,454 -1162,623 -99,65 -164,134 -259,190 -215,129 -807,612 -998,785 -45,41 -68,80 -111,114 -47,38 -72,60 -119,106l-241 208 -902 1002c-130,152 -649,795 -741,935 -62,94 -124,172 -184,266 -125,195 -220,381 -339,559 -201,300 -368,787 -608,1173 -78,126 -60,126 -196,253 -238,224 -841,186 -1155,169 -257,-13 -593,11 -747,-150 -33,25 -57,47 -92,76 -39,34 -66,47 -99,74 134,170 876,338 1088,342 301,6 580,33 878,-54 356,-104 385,-384 532,-667l418 -839c96,-162 184,-332 291,-487 221,-318 441,-631 689,-929l719 -913c41,-44 81,-75 120,-120 26,-30 26,-37 52,-67l172 -188c153,-167 321,-320 485,-474 48,-44 73,-77 124,-116 47,-37 79,-72 123,-117 207,-211 832,-665 1076,-842l290 -189c356,-207 720,-413 1097,-583 59,-27 129,-42 164,-91 -38,-10 -59,-34 -90,-60l-266 -212c-59,-59 -111,-90 -166,-149l-283 -362c-86,-141 -148,-305 -130,-474 21,-196 12,-388 60,-584 55,-220 77,-433 140,-652l95 -384c24,-73 50,-168 67,-247 12,-52 14,-71 29,-120l435 -1794 88 -554c7,-54 1,-103 7,-157 47,-382 70,-836 14,-1210 -13,-87 -18,-206 -37,-278 -31,-121 -57,-265 -100,-380 -19,-50 -22,-87 -35,-131 -15,-50 -21,-70 -36,-128l-238 -708c-15,-44 -28,-81 -44,-121l-92 -238c-23,-70 -61,-159 -90,-225l-341 -769c-25,-53 -32,-58 -54,-111 -30,-71 -64,-141 -101,-214 -37,-70 -70,-142 -107,-208 -40,-71 -77,-139 -115,-215 -2,-4 -8,-16 -10,-20 -157,-299 -326,-604 -506,-889 -9,-14 -20,-29 -30,-45l-406 -643c-46,-67 -86,-116 -129,-186l-127 -188c-104,-126 -270,-401 -363,-506 -17,-19 -7,-5 -23,-23 -3,-3 -20,-23 -21,-24l-115 -154c-59,-72 -90,-138 -155,-205 -30,-32 -48,-54 -74,-90 -26,-34 -42,-65 -69,-96 -136,-160 -304,-384 -435,-524 -51,-54 -102,-128 -162,-168 0,206 80,457 92,689 19,378 71,687 48,1124 -5,108 -24,246 -29,359 -9,238 -36,472 -81,711 -71,376 -126,753 -241,1120 -107,344 -192,696 -332,1029l-113 291c-72,202 -175,408 -266,601 -14,29 -20,47 -33,72l-129 260c-210,429 -468,835 -729,1232 -249,378 -484,651 -752,1001 -75,97 -504,573 -568,616 -161,-85 -309,-228 -439,-355l-527 -537c-207,-244 -392,-503 -553,-781 -136,-235 -237,-469 -337,-727 -49,-126 -96,-264 -130,-396 -20,-75 -35,-131 -55,-215l-88 -438c-122,-721 -134,-1551 -136,-2283 -1,-195 14,-334 13,-524 -84,57 -213,291 -283,390 -44,63 -89,131 -131,198l-416 678c-165,272 -298,542 -441,830l-389 868c-134,301 -227,615 -335,923l-115 393c-40,175 -102,365 -132,541l-57 287c-11,50 -26,92 -32,132l-47 282c-32,157 -71,575 -91,761l-26 467c1,83 -11,96 -15,165 -18,353 9,972 49,1318 13,106 26,182 32,300 5,105 39,200 45,300 12,197 66,378 106,570 63,304 165,603 273,896l503 1193c20,41 39,72 56,110l278 561c22,43 38,77 62,118 107,178 192,367 290,549l522 994c21,43 35,63 60,104l420 885c74,182 64,295 45,486 -6,59 0,96 -10,155l-83 440c-13,93 -57,184 -57,285z"/>
   <path class="fil1" d="M6349 16923c140,35 256,30 407,78 274,86 534,264 700,496 29,40 66,112 97,146l71 136c326,634 383,1771 314,2481l-22 77c44,107 24,109 5,242 -13,88 -28,186 -41,273 -15,96 -57,464 -88,514 34,70 -9,219 -24,314l-148 945c148,4 557,-128 1145,-102 182,8 366,32 533,79 279,80 322,168 415,208 7,-11 70,-1320 83,-1474 93,-1126 278,-2604 686,-3662 35,-90 92,-211 112,-299 21,-245 265,-702 434,-906 214,-259 443,-434 755,-609 114,-63 521,-261 654,-249 178,-116 827,-108 1061,-82 765,86 1826,556 2122,1267l52 105c2,-205 -3,-397 16,-602 54,-601 263,-486 -221,-733 -59,-30 -112,-52 -169,-85 -282,-163 -410,-122 -283,-368 61,-118 108,-223 158,-350 97,-242 183,-488 240,-763 47,-225 116,-716 -27,-896l-89 170c-200,392 -461,819 -992,848 34,-93 167,-331 249,-542 157,-408 243,-891 145,-1328 -38,-172 -160,-460 -261,-531 -67,136 -74,484 -416,882 -178,208 -489,431 -924,371 72,-119 100,-99 176,-338 43,-134 73,-279 98,-423 246,-1426 56,-4454 -63,-5994 -19,-238 -35,-783 -85,-973 -91,2683 -946,4921 -2524,6880 -88,110 -180,214 -267,316l-282 302c-95,106 -186,200 -288,297 -1298,1240 -2534,2064 -4199,2877 -122,59 -289,131 -400,199 -22,171 211,713 259,908 121,-14 251,-56 387,-73 144,-19 307,-10 439,-29z"/>
   <path class="fil2" d="M9526 23224c-150,191 -296,367 -450,550 -77,92 -154,185 -234,276 -78,89 -174,175 -234,257 154,161 490,137 747,150 314,17 917,55 1155,-169 136,-127 118,-127 196,-253 240,-386 407,-873 608,-1173 119,-178 214,-364 339,-559 60,-94 122,-172 184,-266 92,-140 611,-783 741,-935l902 -1002 241 -208c47,-46 72,-68 119,-106 43,-34 66,-73 111,-114 191,-173 783,-656 998,-785 95,-56 160,-125 259,-190 257,-169 863,-482 1162,-623 -194,-159 -298,-207 -476,-457 -66,-93 -136,-182 -202,-278 -262,-377 -302,-279 -567,-174 -116,46 -216,89 -332,132 -111,40 -227,85 -328,138 -78,40 -270,111 -239,232 24,92 298,136 451,187 -332,26 -833,204 -1096,345 -290,156 -845,455 -130,597l-855 486c-296,192 -666,419 -930,645 -26,22 -40,37 -64,55 -71,52 -98,64 -168,162 -160,228 210,125 388,129 -79,50 -173,114 -255,167 -171,111 -549,447 -658,600 -25,36 -19,33 -51,69 -148,168 -183,233 -315,419 -34,48 -50,79 -80,130 -65,107 -202,324 -163,447 66,20 178,-24 257,-34 -37,57 -78,93 -133,175 -373,556 -280,956 -455,1072 -190,127 -272,-74 -443,-94z"/>
   <path class="fil3" d="M7620 22625l-204 80c-95,73 -79,125 -74,288 4,153 69,287 134,405l207 333c50,76 96,139 150,210l427 472c49,36 69,44 157,44 33,-27 60,-40 99,-74 35,-29 59,-51 92,-76 60,-82 156,-168 234,-257 80,-91 157,-184 234,-276 154,-183 300,-359 450,-550 52,-89 213,-240 244,-329 -25,-35 -37,-48 -57,-85 -93,-40 -136,-128 -415,-208 -167,-47 -351,-71 -533,-79 -588,-26 -997,106 -1145,102z"/>
   <path class="fil3" d="M10594 17375c222,95 227,180 607,-63 190,-121 331,-242 482,-372 107,-92 318,-329 404,-449 63,-88 118,-173 159,-275 22,-52 39,-107 44,-165 9,-101 -21,-111 -26,-192 128,-121 105,-174 173,-248 -133,-12 -540,186 -654,249 -312,175 -541,350 -755,609 -169,204 -413,661 -434,906z"/>
   <path class="fil2" d="M7792 21366c31,-50 73,-418 88,-514 13,-87 28,-185 41,-273 19,-133 39,-135 -5,-242 -79,-76 -803,-1152 -856,-1239 -138,-229 -255,-455 -437,-612 -70,-60 -536,-436 -589,-459 23,70 81,160 119,225 260,453 520,987 765,1455 282,540 561,1148 874,1659z"/>
   <path class="fil3" d="M7553 17643c-31,-34 -68,-106 -97,-146 -166,-232 -426,-410 -700,-496 -151,-48 -267,-43 -407,-78 22,40 59,79 88,112 51,57 52,42 144,66 49,140 32,155 120,269 170,223 511,325 760,417 47,-36 81,-79 92,-144z"/>
  </g>
 </g>
</svg>
